<mxfile host="app.diagrams.net" modified="2022-11-02T21:56:06.902Z" agent="5.0 (Windows NT 10.0; Win64; x64) AppleWebKit/537.36 (KHTML, like Gecko) Chrome/107.0.0.0 Safari/537.36" etag="aMSrAhwD8ceS7hcWnk6U" version="20.5.1" type="github">
  <diagram id="R2lEEEUBdFMjLlhIrx00" name="Page-1">
    <mxGraphModel dx="689" dy="1114" grid="1" gridSize="10" guides="1" tooltips="1" connect="1" arrows="1" fold="1" page="1" pageScale="1" pageWidth="850" pageHeight="1100" math="0" shadow="0" extFonts="Permanent Marker^https://fonts.googleapis.com/css?family=Permanent+Marker">
      <root>
        <mxCell id="0" />
        <mxCell id="1" parent="0" />
        <mxCell id="cZqtbgSqyRbhYhAXYLJG-1" value="Project" style="swimlane;childLayout=stackLayout;horizontal=1;startSize=30;horizontalStack=0;rounded=1;fontSize=14;fontStyle=0;strokeWidth=2;resizeParent=0;resizeLast=1;shadow=0;dashed=0;align=center;strokeColor=#001DBC;fontColor=#ffffff;fillColor=#0050ef;gradientColor=none;swimlaneFillColor=default;" vertex="1" parent="1">
          <mxGeometry x="40" y="40" width="90" height="160" as="geometry" />
        </mxCell>
        <mxCell id="cZqtbgSqyRbhYhAXYLJG-2" value="+id&#xa;+name&#xa;+description&#xa;+clientId&#xa;+clientName&#xa;+owner&#xa;+createdAt&#xa;+updatedAt&#xa;" style="align=left;strokeColor=none;fillColor=none;spacingLeft=4;fontSize=12;verticalAlign=top;resizable=0;rotatable=0;part=1;fontColor=#46495D;" vertex="1" parent="cZqtbgSqyRbhYhAXYLJG-1">
          <mxGeometry y="30" width="90" height="130" as="geometry" />
        </mxCell>
        <mxCell id="cZqtbgSqyRbhYhAXYLJG-4" value="Scene" style="swimlane;childLayout=stackLayout;horizontal=1;startSize=30;horizontalStack=0;rounded=1;fontSize=14;fontStyle=0;strokeWidth=2;resizeParent=0;resizeLast=1;shadow=0;dashed=0;align=center;strokeColor=#001DBC;fontColor=#ffffff;fillColor=#0050ef;" vertex="1" parent="1">
          <mxGeometry x="180" y="40" width="160" height="120" as="geometry" />
        </mxCell>
        <mxCell id="cZqtbgSqyRbhYhAXYLJG-5" value="+id&#xa;+projectId&#xa;+actorId&#xa;+name&#xa;+description" style="align=left;strokeColor=none;fillColor=none;spacingLeft=4;fontSize=12;verticalAlign=top;resizable=0;rotatable=0;part=1;fontColor=#46495D;" vertex="1" parent="cZqtbgSqyRbhYhAXYLJG-4">
          <mxGeometry y="30" width="160" height="90" as="geometry" />
        </mxCell>
        <mxCell id="cZqtbgSqyRbhYhAXYLJG-7" value="Actor" style="swimlane;childLayout=stackLayout;horizontal=1;startSize=30;horizontalStack=0;rounded=1;fontSize=14;fontStyle=0;strokeWidth=2;resizeParent=0;resizeLast=1;shadow=0;dashed=0;align=center;strokeColor=#001DBC;fontColor=#ffffff;fillColor=#0050ef;" vertex="1" parent="1">
          <mxGeometry x="410" y="40" width="160" height="180" as="geometry" />
        </mxCell>
        <mxCell id="cZqtbgSqyRbhYhAXYLJG-8" value="+id&#xa;+name&#xa;+description&#xa;+avatarId&#xa;+gender&#xa;+language&#xa;+voiceID&#xa;" style="align=left;strokeColor=none;fillColor=none;spacingLeft=4;fontSize=12;verticalAlign=top;resizable=0;rotatable=0;part=1;fontColor=#46495D;" vertex="1" parent="cZqtbgSqyRbhYhAXYLJG-7">
          <mxGeometry y="30" width="160" height="150" as="geometry" />
        </mxCell>
        <mxCell id="cZqtbgSqyRbhYhAXYLJG-14" value="" style="edgeStyle=entityRelationEdgeStyle;fontSize=12;html=1;endArrow=ERoneToMany;rounded=0;strokeColor=#788AA3;fontColor=#46495D;fillColor=#B2C9AB;exitX=1.011;exitY=0.085;exitDx=0;exitDy=0;exitPerimeter=0;entryX=0;entryY=0.111;entryDx=0;entryDy=0;entryPerimeter=0;" edge="1" parent="1" source="cZqtbgSqyRbhYhAXYLJG-2" target="cZqtbgSqyRbhYhAXYLJG-5">
          <mxGeometry width="100" height="100" relative="1" as="geometry">
            <mxPoint x="130" y="80" as="sourcePoint" />
            <mxPoint x="170" y="80" as="targetPoint" />
          </mxGeometry>
        </mxCell>
        <mxCell id="cZqtbgSqyRbhYhAXYLJG-16" value="" style="edgeStyle=entityRelationEdgeStyle;fontSize=12;html=1;endArrow=ERoneToMany;rounded=0;strokeColor=#788AA3;fontColor=#46495D;fillColor=#B2C9AB;exitX=0.994;exitY=0.1;exitDx=0;exitDy=0;exitPerimeter=0;entryX=-0.006;entryY=0.064;entryDx=0;entryDy=0;entryPerimeter=0;" edge="1" parent="1" source="cZqtbgSqyRbhYhAXYLJG-5" target="cZqtbgSqyRbhYhAXYLJG-8">
          <mxGeometry width="100" height="100" relative="1" as="geometry">
            <mxPoint x="340" y="180" as="sourcePoint" />
            <mxPoint x="410" y="80" as="targetPoint" />
          </mxGeometry>
        </mxCell>
      </root>
    </mxGraphModel>
  </diagram>
</mxfile>
